<svg width="56" height="42" viewBox="0 0 56 42" xmlns="http://www.w3.org/2000/svg"><title>C63379AB-4D25-49B4-873C-2D480FDF6704</title><g fill="#ED2678" fill-rule="evenodd"><path d="M28.304 11.962l-.067-.291a10.596 10.596 0 0 0-1.803-4.169c-.201-.339-.465-.656-.722-.975-.257-.319-.5-.645-.793-.943l-.843-.914-.587-.61a43.914 43.914 0 0 0-1.526-1.535l-.286-.255a3.822 3.822 0 0 0-.25-.19 1.403 1.403 0 0 0-.222-.116c-.038 0-.09.004-.155.01-.083-.009-.092.067-.154.112a.856.856 0 0 1-.214.136c-.171.018-.367.014-.582.025-.213.018-.447.014-.69.021-.24.02-.482.082-.72.183-.45.137-.925.429-1.245.838a126.53 126.53 0 0 1-2.292-.63 34.25 34.25 0 0 1-3.168-1.056c-.97-.377-1.641-.658-2.016-.839-1.385.563-2.41 1.292-3.081 2.184a16.535 16.535 0 0 1-2.402 2.553c.123.568-.012 1.23-.407 1.987-.398.76-.685 1.328-.865 1.705-.318.463-.43.798-.337 1.006.089.208.053.574-.114 1.093-.06.152-.185.326-.382.523-.197.2-.361.378-.49.533-.117.301-.092.569.076.805.164.239.193.543.084.913-.212.815-.326 1.329-.341 1.547a3.72 3.72 0 0 0-.018.381l.03.322c.017.18-.045.673-.186 1.479a19.41 19.41 0 0 0-.398 3.827c-.018 1.373-.235 2.512-.652 3.417.136.71.284 1.527.443 2.448.156.925.334 1.864.53 2.819.197.956.423 1.855.682 2.697.256.842.558 1.572.903 2.189.667.227 1.7.528 3.099.9a24.03 24.03 0 0 0 4.215.741c1.41.122 2.622.025 3.635-.287 1.01-.311 1.46-1.074 1.348-2.292-.258-1.995-.204-4.111.164-6.349a51.968 51.968 0 0 1 1.315-5.824l.74-.056.71-.054c.346-.032.8-.105 1.199-.154l1.242-.161 1.216-.221c2.363-.402 4.16-1.589 5.306-3.341a7.4 7.4 0 0 0 1.102-2.948c.163-1.038.108-2.136-.031-3.184M55.444 18.185l-.064-.778c-.12-.689-.166-1.39-.385-2.06a8.333 8.333 0 0 0-.34-.996 8.954 8.954 0 0 0-.432-.959c-.325-.66-.651-1.152-.921-1.56-.291-.438-.551-.782-.798-1.109-1.006-1.257-1.41-1.82-1.736-1.667-.401.347-1.44-.13-2.421.19-.053.01-.107.03-.161.043l-.003-.077c-.577-.029-1.376-.189-2.4-.478a122.2 122.2 0 0 1-3.237-.959 34.523 34.523 0 0 1-3.142-1.128c-.961-.399-1.626-.695-1.997-.885-1.398.532-2.44 1.238-3.13 2.113a16.564 16.564 0 0 1-2.458 2.498c.11.571-.04 1.23-.453 1.977a57.96 57.96 0 0 0-.902 1.685c-.33.456-.448.79-.36 1 .084.21.04.574-.14 1.09-.061.15-.191.321-.393.513-.201.195-.37.37-.5.522-.125.298-.106.567.056.806.16.243.18.547.064.914-.23.811-.356 1.322-.375 1.54-.023.218-.03.345-.027.38l.022.323c.013.18-.06.671-.22 1.474a19.449 19.449 0 0 0-.483 3.817c-.05 1.373-.292 2.506-.73 3.401.12.713.25 1.533.389 2.458.135.928.292 1.871.467 2.831.175.96.38 1.864.62 2.711.238.848.523 1.584.854 2.21.662.241 1.687.565 3.078.97 1.388.406 2.789.685 4.197.836 1.408.154 2.62.084 3.64-.204 1.017-.288 1.486-1.04 1.4-2.26-.213-2-.111-4.115.307-6.344.354-1.89.83-3.788 1.416-5.696a53.66 53.66 0 0 1 2.367-.026c.649.004 1.225-.04 1.918-.139.75-.126 1.649-.323 2.754-.832a8.75 8.75 0 0 0 1.773-1.1 7.87 7.87 0 0 0 1.725-1.922 7.63 7.63 0 0 0 .995-2.4c.17-.755.209-1.405.208-1.938-.007-.293-.024-.55-.042-.785"/></g></svg>