<svg width="93" height="70" viewBox="0 0 93 70" xmlns="http://www.w3.org/2000/svg"><title>5B4C43E9-4361-4171-AF33-D59173735CAD</title><path d="M91.41 8.726c0 .554-.103 1.246-.31 2.077a9.848 9.848 0 0 0-.312 2.39c0 .761.103 1.419.311 1.973.208.554.727.83 1.558.83a1071.772 1071.772 0 0 0-7.167 11.116 163.522 163.522 0 0 0-6.752 11.634c-2.078 3.947-3.809 7.86-5.194 11.738-1.385 3.878-2.147 7.686-2.285 11.426 0 2.216-1.074 3.463-3.22 3.74-2.147.277-4.64.103-7.48-.52a57.396 57.396 0 0 1-8.31-2.493c-2.7-1.039-4.674-1.835-5.92-2.389-.554-1.247-.97-2.7-1.247-4.363a60.104 60.104 0 0 1-.623-5.09 130.56 130.56 0 0 1-.312-5.193c-.069-1.732-.104-3.22-.104-4.467 1.108-1.524 1.87-3.532 2.286-6.025.415-2.493 1.038-4.778 1.87-6.856.553-1.385.83-2.25.83-2.597v-.623c0-.07.07-.277.208-.623.139-.346.554-1.212 1.247-2.597.277-.693.277-1.281 0-1.766-.277-.485-.277-.935 0-1.35.277-.277.658-.554 1.142-.831.485-.277.797-.554.935-.831.554-.831.762-1.455.623-1.87-.138-.416.139-1.039.831-1.87.554-.692 1.316-1.627 2.286-2.805.97-1.177 1.454-2.32 1.454-3.427a65.517 65.517 0 0 0 5.505-3.948C64.992 1.731 67.38.693 70.428 0c.692.416 1.939 1.108 3.74 2.078 1.8.969 3.808 1.904 6.024 2.804 2.216.9 4.363 1.731 6.44 2.493 2.078.762 3.67 1.212 4.779 1.35zM44.668 15.58a393.482 393.482 0 0 0-6.233 12.154 204.108 204.108 0 0 0-5.713 12.673 100.946 100.946 0 0 0-4.259 12.673c-1.108 4.224-1.593 8.275-1.454 12.153 0 2.355-1.004 3.74-3.013 4.155-2.008.416-4.362.381-7.063-.104a47.242 47.242 0 0 1-7.999-2.181c-2.631-.97-4.57-1.731-5.817-2.285-.554-1.247-1.004-2.701-1.35-4.363a56.704 56.704 0 0 1-.831-5.298 163.24 163.24 0 0 1-.52-5.505C.278 47.853.14 46.259 0 44.874c.97-1.662 1.593-3.808 1.87-6.44.277-2.631.762-5.055 1.454-7.271.416-1.524.623-2.459.623-2.805v-.623c0-.07.035-.312.104-.727.07-.416.381-1.385.935-2.909.277-.692.277-1.28 0-1.766-.277-.484-.277-1.004 0-1.558.277-.277.623-.588 1.039-.935.415-.346.692-.658.83-.935.416-.97.555-1.662.416-2.077-.138-.416.139-1.039.831-1.87.416-.692 1.074-1.731 1.974-3.116.9-1.385 1.281-2.632 1.143-3.74 1.939-1.385 3.635-2.874 5.09-4.466C17.763 2.043 19.875.83 22.645 0c.692.416 1.939 1.073 3.74 1.974 1.8.9 3.774 1.766 5.92 2.597 2.147.83 4.19 1.592 6.13 2.285 1.938.692 3.462 1.108 4.57 1.246 0 .554-.035 1.247-.104 2.078-.07.83-.104 1.662-.104 2.493 0 .83.138 1.523.415 2.077.277.554.762.831 1.455.831z" fill="#456055" fill-rule="evenodd"/></svg>