<?xml version="1.0" encoding="utf-8"?>
<!-- Generator: Adobe Illustrator 21.0.2, SVG Export Plug-In . SVG Version: 6.00 Build 0)  -->
<svg version="1.1" id="Layer_1" xmlns="http://www.w3.org/2000/svg" xmlns:xlink="http://www.w3.org/1999/xlink" x="0px" y="0px"
	 viewBox="0 0 446.6 260" style="enable-background:new 0 0 446.6 260;" xml:space="preserve">
<title>Tamar Signature</title>
<path d="M358.3,857.7c0.8,0,1.5-0.7,1.5-1.5s-0.7-1.5-1.5-1.5s-1.5,0.7-1.5,1.5S357.5,857.7,358.3,857.7z"/>
<path d="M105.3,122.5c-1.1,19.6-1.4,39.3-1.1,58.9c0,1.9,3,1.9,3,0c-0.4-19.7,0-39.3,1.1-58.9C108.4,120.6,105.4,120.6,105.3,122.5z
	"/>
<path d="M2.5,190.9C49,139.2,97.8,89.7,148.9,42.3c14.6-13.4,29.3-26.7,44.2-39.8c1.4-1.3-0.7-3.4-2.1-2.1
	C138.7,46.3,88.6,94.5,40.7,145.1c-13.6,14.4-27.1,29-40.3,43.7C-0.9,190.2,1.2,192.4,2.5,190.9z"/>
<path d="M135.2,175.6c0.8,0,1.5-0.7,1.5-1.5s-0.7-1.5-1.5-1.5s-1.5,0.7-1.5,1.5S134.4,175.6,135.2,175.6z"/>
<path d="M139.8,205.5c10.8-20.2,19.3-41.5,25.2-63.6c0.2-0.8-0.3-1.6-1.1-1.8c-0.8-0.2-1.6,0.3-1.8,1c-5.9,21.8-14.2,42.9-24.9,62.9
	C136.2,205.6,138.8,207.2,139.8,205.5L139.8,205.5z"/>
<path d="M178,97.9c-3.5,20.6-4.4,41.6-2.7,62.4c0.1,1.6,2.6,2.2,2.9,0.4c6.5-32.3,13.2-65,27.7-94.8l-2.8-0.8l-20.7,154.1
	c-0.3,1.9,2.8,1.9,3,0l20.7-154.1c0.2-1.5-2.2-2-2.8-0.8c-14.6,30.1-21.4,62.9-28,95.5l2.9,0.4c-1.7-20.6-0.8-41.2,2.6-61.6
	C181.3,96.9,178.4,96,178,97.9L178,97.9z"/>
<path d="M223.6,130.9c-7.1,8.5-12.2,18.4-15.1,29.1c-0.2,0.8,0.3,1.6,1.1,1.8c0.6,0.1,1.3-0.1,1.6-0.7c3.6-6,5.8-12.7,6.5-19.6
	c0.2-1.7-2.7-2.1-2.9-0.4c-0.6,3.1,0,6.3,1.5,9c0.4,0.7,1.4,1,2.1,0.5c0.1-0.1,0.2-0.1,0.3-0.2c5.9-6.9,10.8-14.6,14.7-22.8
	l-2.7-0.4c0.9,3.6,1.4,7.3,1.2,11c-0.1,1.8,2.4,1.9,2.9,0.4c2.5-6.1,5.4-11.9,8.8-17.5H241c2.6,5.5,9.2,13.2,15.2,6.7
	c1.3-1.4-0.8-3.6-2.1-2.1c-4.5,4.9-8.9-2.7-10.5-6.1c-0.4-0.7-1.4-0.9-2.1-0.5c-0.2,0.1-0.4,0.3-0.5,0.5c-3.5,5.9-6.6,12-9.1,18.3
	l2.9,0.4c0.1-4-0.3-8-1.3-11.8c-0.2-0.8-1.1-1.3-1.9-1c-0.3,0.1-0.6,0.3-0.8,0.6c-3.8,8-8.5,15.4-14.2,22.2l2.4,0.3
	c-1.3-2-1.7-4.4-1.2-6.7l-2.9-0.4c-0.7,6.4-2.8,12.6-6.2,18.1l2.7,1.2c2.7-10.2,7.6-19.7,14.3-27.8
	C226.9,131.6,224.8,129.5,223.6,130.9L223.6,130.9z"/>
<path d="M274.9,111.3c-1.9,2.5-3.5,5.2-4.8,8.1c-0.6,1.4,1.2,3.3,2.4,1.8l3.4-4.3l-2.5-1.5c-1.4,3.5-0.1,7.6,3.1,9.6
	c1.6,1.1,3.1-1.5,1.5-2.6c-2-1.4-2.8-4-1.7-6.2c0.6-1.4-1.6-2.6-2.5-1.5l-3.4,4.3l2.4,1.8c1.2-2.9,2.8-5.6,4.8-8.1
	C278.7,111.2,276.1,109.8,274.9,111.3L274.9,111.3z"/>
<path d="M298.4,99c-4.9,0.2-17.2,1.8-15.8,9.3c0.7,3.7,4.4,6,7.3,7.8c4.3,2.6,8.8,4.8,13.3,7c8.9,4.3,19.1,8.7,25.3,16.8
	c2.1,2.7,4,6.1,3.6,9.7c-0.5,3.7-3.1,5.8-6.1,7.7c-5.4,3.5-11.5,5.8-17.5,8.1c-1.8,0.7-1,3.6,0.8,2.9c7.8-3,18.8-6.1,23.9-13.2
	c4.8-6.6,0.1-15-5-19.9c-6.7-6.5-15.2-10.5-23.5-14.6c-4.3-2.1-8.5-4.1-12.6-6.6c-1.3-0.7-2.6-1.5-3.7-2.5c-1.4-0.7-1.8-1.9-1.2-3.7
	c-1-1.8-0.7-3,0.9-3.4c2.3-2,7.5-2.2,10.3-2.4C300.3,102,300.3,99,298.4,99L298.4,99z"/>
<path d="M323.9,85.5c-5.2,2.3-9.5,6.1-12.4,10.9c-0.4,0.7-0.2,1.6,0.6,2.1c0.1,0.1,0.2,0.1,0.3,0.1l18.7,4.5
	c5.8,1.4,11.9,2.4,17.5,4.4c1.7,0.5,3.2,1.4,4.5,2.7c3.4,3.6,1.6,7.5-1.9,9.9c-2.3,1.5-4.7,2.7-7.4,3.5c-6,1.8-12.4,1.6-18.3-0.5
	c-1.8-0.6-2.6,2.3-0.8,2.9c7.2,2.5,15,2.4,22.1-0.2c5.2-2,12.3-6,11.1-12.6c-1.3-6.9-9.1-8.7-14.9-10.1c-10-2.4-20-4.9-29.9-7.3
	l0.9,2.2c2.7-4.4,6.6-7.8,11.3-9.8C327.2,87.3,325.7,84.7,323.9,85.5L323.9,85.5z"/>
<path d="M340.2,105l13.7-8.4c1.6-1,0.1-3.6-1.5-2.6l-13.7,8.4C337,103.4,338.5,106,340.2,105z"/>
<path d="M352.4,84c4.8,1.9,9.9,0.5,13.7-2.9c4.8-4.3,6.1-10.8,6.2-17c0.2-8.9-0.7-17.9-1.2-26.7l-1.4-27.7l-3,0.4
	c11.4,29.1,20.6,58.9,27.7,89.4c0.2,0.8,1.1,1.2,1.9,1c0.5-0.1,0.9-0.5,1-1l7.5-35.9h-2.9c4,13.9,18.6,21.9,32.5,17.9
	c4.4-1.3,8.3-3.6,11.5-6.9c1.4-1.4-0.7-3.3-2.1-2.1c-13.3,11-23.5,24.9-35,37.7c-11.4,13-25.3,23.4-41,30.6
	c-16.1,7.4-33.2,12-50,17.6c-16.9,5.5-33.3,12.6-48.8,21.3c-22,12.5-58.3,35.1-45.4,65.8c6.1,14.4,20.5,16.2,34.5,13.7
	c14.4-2.5,28.8-9.2,37.8-21.2c10.2-13.6,11.3-31.3,9-47.6c-1.2-8.7-3.1-17.7-6.4-25.9c-2.5-6.1-6.2-11.8-13-13.3
	c-0.8-0.2-1.6,0.2-1.9,1c-3.7,25.4,16,43.8,33.7,58.6c1.5,1.2,3.6-0.9,2.1-2.1c-16.6-13.9-36.5-31.5-32.9-55.6l-1.9,1
	c7.4,1.6,10.5,9.1,12.5,15.6c2.2,7.2,3.9,14.5,4.9,22c1.9,14.4,1.1,30.2-7.3,42.7c-8.6,12.7-23.4,19.5-38.2,22
	c-8.4,1.4-17.9,1.9-24.7-4.2c-4.9-4.4-7.2-11-7.7-17.4c-1-15.4,10.3-27.7,21.7-36.5c13.2-9.9,27.3-18.3,42.3-25.1
	c27.7-12.9,58.2-18.3,85.5-31.8c14.7-7.3,26.9-17.4,37.8-29.6C423,99,433.1,85.4,446.1,74.5l-2.1-2.1c-8.9,9.2-23.6,9.5-32.8,0.6
	c-2.9-2.8-5.1-6.4-6.2-10.3c-0.4-1.3-2.6-1.5-2.9,0l-7.5,36h2.9c-7.1-30.4-16.4-60.3-27.8-89.3c-0.6-1.5-3-1.4-3,0.4l2.1,41.5
	c0.3,6.3,1.3,13.1-0.2,19.3c-1.7,6.9-7.9,13.7-15.5,10.6C351.4,80.4,350.6,83.3,352.4,84L352.4,84z"/>
</svg>
