<svg id="Layer_1" data-name="Layer 1" xmlns="http://www.w3.org/2000/svg" viewBox="0 0 446.61 857.73"><title>Tamar Signature</title><path d="M372.74,871.55a1.5,1.5,0,0,0,0-3,1.5,1.5,0,0,0,0,3Z" transform="translate(-14.39 -13.83)"/><path d="M119.66,136.37q-1.64,29.45-1.05,58.95c0,1.93,3,1.93,3,0q-.59-29.49,1.05-58.95c.11-1.93-2.89-1.92-3,0Z" transform="translate(-14.39 -13.83)"/><path d="M16.91,204.76q69.73-77.6,146.36-148.6Q185.1,36,207.45,16.34c1.45-1.28-.68-3.39-2.12-2.12Q127,83.08,55.1,158.91q-20.44,21.6-40.31,43.73c-1.29,1.43.83,3.56,2.12,2.12Z" transform="translate(-14.39 -13.83)"/><path d="M149.58,189.45a1.5,1.5,0,0,0,0-3,1.5,1.5,0,0,0,0,3Z" transform="translate(-14.39 -13.83)"/><path d="M154.14,219.29a299.88,299.88,0,0,0,25.2-63.6,1.5,1.5,0,0,0-2.89-.8,296.36,296.36,0,0,1-24.9,62.88c-.91,1.7,1.68,3.22,2.59,1.51Z" transform="translate(-14.39 -13.83)"/><path d="M192.42,111.77a250.25,250.25,0,0,0-2.7,62.39c.13,1.57,2.59,2.17,2.95.4,6.53-32.32,13.24-65,27.73-94.81L217.6,79,196.95,233.13c-.26,1.91,2.75,1.89,3,0L220.6,79c.2-1.48-2.17-2-2.8-.76-14.61,30.11-21.45,62.94-28,95.53l2.95.4a247,247,0,0,1,2.59-61.59c.32-1.89-2.57-2.7-2.89-.8Z" transform="translate(-14.39 -13.83)"/><path d="M238,144.77a75.64,75.64,0,0,0-15.08,29.08,1.51,1.51,0,0,0,2.74,1.16,47.76,47.76,0,0,0,6.53-19.64c.18-1.66-2.69-2.07-2.95-.4a13.48,13.48,0,0,0,1.48,9,1.51,1.51,0,0,0,2.36.3,105.84,105.84,0,0,0,14.69-22.81l-2.74-.36a37.91,37.91,0,0,1,1.22,11c-.06,1.82,2.35,1.86,2.95.4A126.65,126.65,0,0,1,258,135h-2.59c2.57,5.47,9.19,13.24,15.2,6.7,1.31-1.42-.81-3.55-2.12-2.12-4.48,4.87-8.89-2.69-10.49-6.09a1.51,1.51,0,0,0-2.59,0,131.58,131.58,0,0,0-9.15,18.34l2.95.4a40.6,40.6,0,0,0-1.33-11.82,1.52,1.52,0,0,0-2.74-.36,102.78,102.78,0,0,1-14.22,22.2l2.36.3a8.81,8.81,0,0,1-1.17-6.73l-2.95-.4A44.27,44.27,0,0,1,223,173.49l2.74,1.16a72.17,72.17,0,0,1,14.3-27.76c1.23-1.47-.89-3.61-2.12-2.12Z" transform="translate(-14.39 -13.83)"/><path d="M289.34,125.09a38,38,0,0,0-4.76,8.11c-.6,1.4,1.21,3.3,2.36,1.82l3.35-4.33-2.51-1.46a7.88,7.88,0,0,0,3.08,9.61c1.61,1.07,3.12-1.53,1.51-2.59a4.93,4.93,0,0,1-1.71-6.23c.57-1.35-1.61-2.62-2.51-1.46l-3.35,4.33,2.36,1.82a38,38,0,0,1,4.76-8.11c1.17-1.53-1.43-3-2.59-1.51Z" transform="translate(-14.39 -13.83)"/><path d="M312.76,112.85c-4.91.2-17.24,1.81-15.77,9.31.72,3.65,4.36,6,7.28,7.82,4.27,2.61,8.78,4.8,13.29,7,8.92,4.32,19.07,8.74,25.34,16.75,2.09,2.67,4,6.15,3.6,9.66-.45,3.71-3.15,5.79-6.12,7.71-5.4,3.5-11.52,5.78-17.5,8.06-1.79.68-1,3.58.8,2.89,7.77-3,18.84-6.12,23.93-13.19,4.79-6.63.08-15-5-19.92-6.7-6.48-15.25-10.53-23.54-14.55-4.27-2.07-8.55-4.13-12.62-6.56a18.06,18.06,0,0,1-3.7-2.52q-2.09-1.08-1.2-3.67-1.44-2.76.92-3.4c2.31-2,7.48-2.25,10.29-2.37,1.92-.08,1.93-3.08,0-3Z" transform="translate(-14.39 -13.83)"/><path d="M338.31,99.33a27.48,27.48,0,0,0-12.39,10.93,1.51,1.51,0,0,0,.9,2.2L345.52,117c5.77,1.41,11.93,2.36,17.51,4.42a12,12,0,0,1,4.53,2.66c3.36,3.63,1.57,7.5-1.87,9.87a26.4,26.4,0,0,1-7.35,3.46,29.4,29.4,0,0,1-18.28-.5c-1.83-.63-2.62,2.27-.8,2.89a32.15,32.15,0,0,0,22.08-.25c5.2-2,12.31-6,11.06-12.62-1.31-6.94-9.07-8.68-14.86-10.09q-15-3.66-29.93-7.29l.9,2.2a24.81,24.81,0,0,1,11.32-9.85c1.76-.79.23-3.37-1.51-2.59Z" transform="translate(-14.39 -13.83)"/><path d="M354.59,118.79l13.72-8.36c1.65-1,.14-3.6-1.51-2.59l-13.72,8.36c-1.65,1-.14,3.6,1.51,2.59Z" transform="translate(-14.39 -13.83)"/><path d="M366.81,97.84c4.83,1.94,9.91.49,13.73-2.92,4.8-4.28,6.09-10.82,6.25-17,.23-8.87-.73-17.87-1.18-26.72l-1.4-27.69-2.95.4A654.78,654.78,0,0,1,409,113.27a1.51,1.51,0,0,0,2.89,0l7.52-35.93h-2.89a26.23,26.23,0,0,0,44,11c1.38-1.4-.66-3.34-2.12-2.12-13.26,11-23.51,24.94-35,37.71a123.5,123.5,0,0,1-41,30.62c-16.1,7.35-33.25,12-50,17.56a271.57,271.57,0,0,0-48.82,21.31c-22,12.48-58.34,35.11-45.41,65.8,6.08,14.41,20.55,16.17,34.46,13.72,14.43-2.55,28.83-9.19,37.77-21.16,10.18-13.63,11.3-31.3,9-47.6-1.23-8.67-3.1-17.71-6.38-25.86-2.45-6.1-6.25-11.8-13-13.3a1.51,1.51,0,0,0-1.85,1c-3.71,25.36,16.05,43.75,33.66,58.57,1.47,1.24,3.6-.88,2.12-2.12C317.33,208.58,297.49,191,301,166.87l-1.85,1c7.35,1.63,10.45,9.11,12.46,15.62a135.73,135.73,0,0,1,4.91,22c1.94,14.45,1.11,30.22-7.3,42.66-8.61,12.73-23.39,19.52-38.18,22-8.36,1.38-17.95,1.86-24.68-4.2-4.88-4.39-7.25-11-7.66-17.44-1-15.44,10.28-27.72,21.71-36.5a227.62,227.62,0,0,1,42.32-25.15c27.66-12.91,58.19-18.27,85.54-31.83,14.71-7.3,26.91-17.4,37.81-29.61,11.26-12.6,21.39-26.23,34.44-37.1l-2.12-2.12a23.2,23.2,0,0,1-39-9.69c-.4-1.35-2.58-1.51-2.89,0L409,112.47h2.89a654.78,654.78,0,0,0-27.78-89.34c-.57-1.46-3-1.43-2.95.4l2.11,41.54c.32,6.27,1.28,13.12-.22,19.29-1.67,6.88-7.86,13.65-15.48,10.59-1.79-.72-2.57,2.18-.8,2.89Z" transform="translate(-14.39 -13.83)"/></svg>