<svg width="72" height="43" viewBox="0 0 72 43" xmlns="http://www.w3.org/2000/svg"><title>296D8C01-BD1B-4731-82D5-4258204105D7</title><g fill="#ED2678" fill-rule="evenodd"><path d="M10.266 18.417c-.631 2.28-1.485 5.566-2.103 7.738-1.472-1.123-2.385-1.831-3.652-3.006-.43-.397-.855-.791-1.281-1.177-.513-.464-1.103-.88-1.58-.287-.807 1.004-1.954 1.188-1.575 1.898-.016.165.517.346.583.51 1.034 2.584 2.287 5.647 3.492 8.225.067.143.165.268.279.38.16.34.42.613.584.956.123.255.3.755.607.832a.719.719 0 0 0 .725-.241c.025-.032-.06-.391-.073-.43-.061-.166-.23-.65-.228-.671.07-.704.522.306.577.253a1.77 1.77 0 0 0 .359-.43c.008-.014.015-.03.024-.044.11-.06.219-.117.329-.161.323-.13-.151-1.52-.364-2.041-.293-.716-.68-1.448-1.072-2.316a24.855 24.855 0 0 0 2.128 1.487c.866.538 1.882.336 2.494.005.39-.211.516-.82.516-.82a3.237 3.237 0 0 1 .048-1.246c.106-.4.24-.783.47-1.135l.116.033c-.036.35-.025.697.02 1.032.342.977.727 1.73 1.193 2.318.38.478 1.042.343 1.816.305.85-.04 2.119-.24 2.453-.754.256-.395-.264-.622-.598-1.03-.82-1-1.22-2.706-1.512-3.951l-.171-.714c-.336-1.391-1.092-4.381-.917-5.826l.099-.598c.13-.598.72-1.162.457-1.327-.484-.304-1.637-.18-2.445.006-.781.18-1.558.04-1.69 1.658l-.108.569zM44.567 17.25c-1.87-2.442-6.617-2.332-6.617-2.332l.003.007c-1.57-.111-3.017.575-4.315.473-2.978-.231-.666-4.968 2.845-3.184.19.09.594.722.594.722.05.128.136.243.274.328.565.349 1.407.089 1.844-.423.145-.17.342-.33.455-.528.284-.437.84-.646.84-.646l.01-.001s2.794.629 3.255-2.041c.325-1.884-2.958-2.448-2.958-2.448S39.795 7.022 38.202 7c-5.412-.073-11.181 5.755-9.346 9.496.816 1.664 2.69 2.417 4.97 2.667 1.837.202 5.34-.1 4.859 2.34-.758 2.539-4.021 2.329-5.411-.045-.527-1.067-1.48-1.397-2.291-1.26-.082-.033-.162-.073-.241-.11-1.05-.581-2.28.372-2.607.949-.323.57-.018.43.424.497.448.067 1.439 1.786 1.439 1.786v-.006c1.177 2.03 3.913 4.318 6.79 4.494 2.57.156 5.156-1.173 6.813-3.015l.012-.006c1.665-1.278 2.832-5.084.954-7.538M67.532 38.326a2.93 2.93 0 0 0-.422-.218s-9.36-5.575-13.117-5.745h-.029c-.284-.107-.565-.222-.851-.324a33.884 33.884 0 0 0-7.724-1.673 68.299 68.299 0 0 0-7.933-.362c-5.241.062-10.427.677-15.551 1.722-2.559.538-5.101 1.183-7.605 1.987-2.502.803-4.969 1.793-7.3 3.089l.173.45c4.844-1.87 9.917-2.728 14.972-3.212 5.055-.488 10.141-.593 15.134-.275 2.505.142 4.911.537 7.315 1.175.6.163 1.199.33 1.798.498.139.109.302.2.507.256 3.346.913 5.623 3.132 8.528 4.923.628.386 1.284.307 1.808-.156l.027.015c.166.153.348.277.547.37.433.287.904.462 1.399.56.862.172 1.543-.021 2.26-.38.083.068.184.153.311.262.383.33 1.04.643 1.531.814.987.343 1.806.41 2.778-.01.483-.055.94-.195 1.313-.468a1.987 1.987 0 0 0 .79-1.855c.077-.535-.094-1.086-.659-1.443"/><path d="M54.476 19.723l1.236.667c4.764 2.8 1.637 6.315 4.658 11.091 1.085 1.716 3.952 2.377 6.278 2.223l.007.001c5.246.223 5.451-4.677 4.626-4.205-.824.471-2.174-.086-2.174-.086l-.01.001a4.486 4.486 0 0 0-.718-.583l-.105-.068-.08-.09c-4.297-4.812-1.507-8.882-7.219-12.072l-1.943-.75-1.738-.345 1.798-1.156c3.715-2.459 8.37-5.158 9.14-9.96.295-1.843-.684-4.55-4.963-4.384-5.528.215-1.159.62-3.417 3.701L58.116 6.85a42.26 42.26 0 0 1-5.032 7.206l-.256-.99-.64-3.785c-.243-1.419-.399-1.77-.607-2.789-.208-1.023-.347-1.177-.588-2.587-.255-1.493-2.076-1.426-3.498-.935-1.75.603-4.474 2.632-3.139 3.29 2.357 1.158 2.96 5.952 3.481 9.186.457 2.826.313 6.541-.833 9.39-.069.18-.777 1.502-1.28 1.654-.533.162 2.27 1.783 4.621 2.005h.023c1.28.35 2.593.38 3.392-.003.586-.28.931-.669 1.136-1.343 1.195-3.922-.54-7.505-.54-7.505l.12.08zM29.13 24.773c-1.477-2.496-2.344-4.703-3.522-7.228-.762-1.636-1.619-4.32-3.337-5.19a1.386 1.386 0 0 0-.645-.251c-.093-.027-.185-.055-.283-.074-1.436-.281-4.59 1.505-2.815 2.118a.281.281 0 0 1 .187.3c-.433 4.14.415 9.205-.639 12.968-.538 1.92 2.11 1.21 3.36.216.477-.381.248-1.427.355-2 1.064-.105 1.547-.331 2.66-.504.295.617.56.733.911 1.34.123.213.281.386.46.525.305.358.744.615 1.184.836.258.129.536.052.745-.118.171-.004.342-.042.513-.097l.022.007c.057.02.117.036.178.047.463.112 1.644.325 2.447-.186.954-.606-.84-1.321-1.782-2.71m-7.566-1.985c.071-.971.084-2.27.221-3.347.021-.164.41-.323.465-.171.276.759.536 1.344.705 1.765.098.242.468 1.127.566 1.369-.55.654-1.253.814-1.957.384"/></g></svg>