<?xml version="1.0" encoding="utf-8"?>
<!-- Generator: Adobe Illustrator 18.0.0, SVG Export Plug-In . SVG Version: 6.00 Build 0)  -->
<!DOCTYPE svg PUBLIC "-//W3C//DTD SVG 1.1 Tiny//EN" "http://www.w3.org/Graphics/SVG/1.1/DTD/svg11-tiny.dtd">
<svg version="1.1" baseProfile="tiny" id="Layer_1" xmlns="http://www.w3.org/2000/svg" xmlns:xlink="http://www.w3.org/1999/xlink"
	 x="0px" y="0px" viewBox="0 0 144.2 154.8" xml:space="preserve">
<path fill="#180001" d="M138,47c-3.4,1.4-6.6,2.3-9.2-1.3c-1.1-1.6-2.5-1.2-4-0.5c-1.8,0.9-3.6,0.4-5.3-0.2c-2.5-1-1.6-2.9-1.2-4.6
	c0.3-1.5-0.6-2.1-1.9-2.4c-1.8-0.4-2.3,0.9-2.8,2.2c-0.5,1.1-1.2,2.3,0.7,2.8c4.4,1,5.4,5.1,7.4,8.3c1.1,1.8,2,3.8,3.3,5.6
	c3.6,5,1.8,9.7-4.2,11c-1.8,0.4-4,0.4-4.1,2.8c-0.1,2,1.9,2.6,3.5,3c2.7,0.8,4.9,1.9,3.6,5.2c-1.3,3.2-3.9,3.6-6.6,1.9
	c-4.8-2.9-10.2-4.7-14.9-7.8c-0.4-0.5-1.2-1.5-1.3-1.4c-3.4,2.6-8.3,0.3-11.3,3.6c-1.1,1.2-2,3-4,2.1c-1.7-0.8-0.9-2.6-0.9-4
	c0-1.2-0.1-2.3,0.3-3.5c0.9-2.6,0.1-4-2.6-4.8c-2.9-0.8-4.9-2.7-5.2-6c0.1-1,0.5-1.9,1.3-2.5c0.4-0.2,0.9-0.4,1.3-0.5
	c3.6-0.4,3-2.8,2.4-5.2c0-6,1.1-7.5,5.3-7.6c4.2-0.1,5.3,1.7,3.2,5.5c-0.4,0.7-1.3,1.1-0.6,2c0.3,0.4,0.8,0.7,1.3,0.6
	c1.1-0.2,0.7-1.3,1-1.9c2-4.4,0.5-8.9,0.7-13.4c0.2-0.3,0.3-0.7,0.5-0.8c4.7-1.8,6.7-4.9,4.4-9.8c-0.8-2.2,0-3.2,2-1.8
	c2,1.3,3,1,4.4-0.7c1.3-1.6,3.5-1.9,5.5-1.4c4.3,1.1,4.7-1.3,4-4.8c-0.4,3.3-2.6,4.2-5.3,4.3c-1.9,0.1-3.8-0.9-2.7-2.9
	c1.9-3.7,0.8-5.8-2.5-7.5c-0.4-0.2-0.5-0.8-0.3-1.3c0.4-0.9,0.5-1.7,2-2.1l7-1.1h1.6l4.4,1.1c7.2,4.5,13.5,9.9,16.7,18.1
	c0.7,1.8,1.7,3.6,1.4,5.7c0.5,1.9-1.4,2.9-1.5,4.6c-0.1,1.2-0.7,2.3,1.5,1.7c1.5-0.4,1.3,1,1.4,1.9c0.1,1.7-0.2,3.3,0.2,5
	C138.5,45,138.4,46,138,47z"/>
<path fill="#200001" d="M63.1,112c-0.4,0.4-0.9,0.7-1.3,1.1c-3.4,0.9-3.8-1.6-3.4-3.7c0.7-4-0.5-5.9-4.7-6.2
	c-4.4-0.3-3.2-3.7-2.3-6.8c-3.1,1-1.3,4.8-4.2,5c-2.6-1.3-7.2-0.9-4.7-6.3c0.5-1.1-1.3-1-2.2-1c-2.2,0-4.7,0.8-6-2
	c1.2-1,2.5-2.1,3.7-3.1c4-0.8,6.8-5,11.4-3.6c1.7,1.1,0.8,2.1,0,3.2c-0.6,0.8-2,1.7-0.5,2.8c0.7,0.5,1.6,0.4,2.3,0
	c1.2-0.8,1.8-2,1.1-3.4c-0.4-0.9-1.5-1.2-2.1-2c-1.1-3.2-2.5-6.4-2.1-10c4.7-3.4,9.3-6.9,14-10.3c1.5,0.7,3,1.4,4.7,1.2
	c1.9-0.3,3.2,0.7,3.9,2.4c0.7,1.8,0.1,3.4-1.5,4.3c-3.5,2-4,3.6-0.6,6.5c2,1.8,3.1,4.3,6.5,3.9c1.3-0.2,1.9,1.6,2.3,2.9
	c0.6,1.9,1.7,3.6,2.9,5.2c3.8,4.9,3.6,6.5-0.9,10.9c-0.6,0.6-1.2,1.1-1.9,1.5c-0.9,0.7-3.9,1-0.8,2.6c3.3,1.7,4.7,5.6,8.4,6.8
	c1.1,0.3,1.2,1.9,1.4,3.1c0.1,3,0.6,5.9-0.7,8.8c-1.2,1.5-2.9,1.6-4.6,1.3c-2.8-4.1-6.4-7.7-6.2-13.4c0.1-4.5-4.6-6-9.6-3.5
	C63.3,109.4,63.4,111,63.1,112z"/>
<path fill="#B70F0F" d="M77.1,104.1c0.6-0.8,1.1-1.7,1.9-2.3c3.8-2.9,3.9-5.8,0.3-9c-1.5-1.3-2.9-3-3-5c-0.3-3.1-1.5-3.8-4.2-2.3
	c-0.5,0.3-1.3,0.2-1.9,0.3c-0.3-4.1-4.6-5.4-5.9-8.6c-0.9-2.3,1.2-3,2.9-3.7c1.6-0.6,3.3-1.4,2.7-3.5c-0.6-2-1.8-2.7-4.2-1.4
	c-1.9,1-3.4-0.6-3.7-2.8c2-1.9,4-3.9,6.1-5.8c4.6-0.2,6.4,5,10.6,5.6c0.9,0.1,0.7,1.9-0.2,2.5c-3.8,2.3-3.5,6.8-6.8,10.4
	c2.9-0.3,4.3-2.7,6.7-1.3c2.1,1.2,2.4,3.5,3.8,5.5c2.1-1.8,2.9-4.7,5.6-5.9c1.2-0.5,1.6-2.7,3.5-1.7c2,1,3.5,2.4,3.2,4.3
	c-0.5-3.5,0-7.1,5.7-6.2c-0.1,4.5,2.1,6.4,6.6,6.2c1.8-0.1,3.5,1,4.4,2.8c1,2-1.2,2.1-2.1,3.5c3.9-0.8,7.2-2.4,10.8-3
	c2.4-0.4,3.9-2.5,5-5c0.8-2,3-4.3,4.4,0.1c-5.9,8-10.6,17.4-20.7,21.3c-0.4,0.2-1,0.2-1.4,0.3c-0.7-0.5-1-1.3-1.3-2.1
	c-2.3-6.1-4.5-6.8-10.6-3.7c-0.4,0.2-0.9,0.2-1.4,0.1c-2.8-1.7-6.1-0.8-9.2-2c0.6,1.6,2,1.7,2.6,2.7c0.2,0.8-0.1,1.6-0.1,2.4
	C86.8,104.7,86.2,105.2,77.1,104.1z"/>
<path fill="#130000" d="M34.1,92.1c1.8,1.1,3.8,1.3,5.7,0.8c1.9-0.5,3.8-0.9,4.8,1c1.2,2.1-2.1,2.2-2.2,4.3c0.6,2.1,4.6-0.3,4.6,2.9
	c1.4,2.5,2.5,4.9,6.1,5.7c3.6,0.8,3.8,4.1,1.9,7.2c-1.8,3.4-3.4,7-6.8,9.2c-3.4,2.6-5.8,3-9.6-0.5c-2.6-2.3-7-3.5-10.6-5.1
	c-2.6-1.2-4.6,0.6-5.3,3.5c-1.9,1.3-3.7,2.6-5.6,3.9c-1.1,0.7-2.4,1.5-3.5,0c-1.3-1.8-2.4-0.9-3.7,0.1c-1.2,0.8-2.7,1.9-3.8,0.1
	c-1-1.6-0.1-2.9,1.3-3.8c5.5-3.7,9.5-9.1,15.3-12.4c1.9-1.1,3.9,0,5.8-0.1c1.4-1.8-1.3-3.1-0.3-4.7c1.7-1.5,3.4-3,5.2-4.4
	c1.7-1.3,2.7-2-0.2-3.5C30.6,94.9,31.8,93,34.1,92.1z"/>
<path fill="#B70F0F" d="M129.3,77.5c-1.3-1.9-3.1-2.1-3.5,0.2c-0.9,4.6-3.7,6-7.9,6.4c-2.2,0.2-4.3,1.1-6.3,2
	c-1.6,0.8-3,1.3-4.6,0.1c-0.5-0.4-0.7-1.1-0.5-1.8c0.8-2.1,2.9-0.6,4.3-1.5c-1.1-2.1-3-2.6-5-2.9c-7-0.9-7-0.8-5.8-7
	c0.4-2.2,1.7-1.7,3-1c5.4,2.8,10.8,5.8,16.3,8.4c2,0.9,3-1,3.5-2.6c0.5-1.4,0-2.7-1.8-2.8c-1.6,0-2.9-0.5-4.1-1.5
	c-1.2-1-3.6-1.7-2.5-3.6c0.8-1.5,1.7-3.8,4.2-3.6c2.3,0.2,5.2,0.4,6-1.8c1-2.8,1.2-5.7-1.7-8.5c-2.3-2.2-3.5-5.8-4.9-8.8
	c-0.6-1.3-1.4-2.8-2.6-2.8c-5.4,0-3.8-1.6-2.9-5.7c1.4-6.2,4.9,0.2,6.2-2c1.9,1.6,1.6,3.4,0.4,5.2c-0.3,0.4-0.4,0.8-0.7,1.4
	c2.6,1,4.9,2.3,7.3-0.1c0.5-0.5,2.2-0.6,2.2-0.4c1.8,5.1,6.2,3.8,10,4.2c0.3,1.5,0.3,2.9-0.8,4.2c-3.9,0.3-6.1,3.9-4.1,7.5
	c0.8,1.4,1.6,2.8,2.1,4.4c0.3,1.8,0.1,3.5-1,5c-5.7,0.2-3.1,4.2-3.1,7C130.4,75.9,129.9,76.7,129.3,77.5z"/>
<path fill="#080000" d="M22.8,121c-1.7-2.8,0.6-4.4,2.3-5c2.2-0.8,5-0.2,6.7,1.8c1.4,1.6,2.3,3.7,5,1.7c0.9-0.7,2,0.4,2.4,1.2
	c2.1,4.5,5.4,4.1,9.1,2.4c-8.1,10-18.8,16.5-30.5,21.4c-3.2,1.3-6.5,2.4-9.9,3.4c-1.4,0.4-3.1,0.7-3.8-1.2c-0.6-1.4,0.2-2.3,1.4-3.3
	c8.1-6.6,15-14.4,22-23C25.5,120.2,24.1,119.5,22.8,121z"/>
<path fill="#200001" d="M103.1,72.1c-1.1,0-2.3-0.2-3,1c-5.2,0.2-4.1,4.4-4.9,7.5c-0.2,0.7,1.2,2.2-0.8,2c-0.8-0.1-2.4-0.9-1.7-1.9
	c2.3-2.9-0.3-4.6-1.8-4.9c-2.5-0.4-3.9,2.3-5.5,4c-0.7,0.8-0.6,2.2-1.1,3.2c-0.4,0.9-1.2,1.7-2.3,1.6c-1.2-0.1-1.5-1-1.9-2
	c-1.7-5-1.7-5-5.9-2.5c-1.5,0.9-2.6-0.1-3.4-1.1c-1-1-0.9-2.2,0.3-2.9c2.3-1.3,3.2-3.3,3-5.8c-0.3-3.2,4.5-1.4,4.2-3.8
	c-0.4-3.1-4.4,1.3-5-1.8c-0.7-3-3.5-3.2-5.2-4.9c0.4-1,1.2-1.5,2.2-1.8c2.8-1.4,5.3,0.1,7.9,1c0.7,3.1,2.6,4.9,5.8,5
	c2.6,0.1,3.5,1.7,3,4c-0.3,1.4-1.5,2.4-1,4.1c0.4,1.3-0.2,2.8-0.3,4.2c2,0.5,2.2-1.1,2.9-2.1c1.5-2.3,2.5-5.9,6-1.8
	c0.6,0.8,1.9,0.5,2.4-0.6C99.1,67,101.1,69.3,103.1,72.1z"/>
<path fill="#0C0303" d="M101,107.1c2.1,5.7,4.2,11.5,6.2,17.3c0.7,2.1,1.8,3.9,3,5.7c2.5,3.8,5.4,5.1,9.6,2.4c3.6-2.3,6.5-1,8.7,2.5
	c-2,0.9-3.2-1-4.9-0.9c-1.4,0.1-2.9,0.1-1.5,2.1c0.8,1.4-2.1,1.4-1,2.9c0.5,1.2-0.3,2.6,0.9,4.2c-4.9-6.8-10.8-7.8-17.7-4.2
	c-0.4,0.3-0.8,0.4-1.3,0.1c-0.1-0.1-0.3-0.4-0.2-0.4c3.3-5.7-0.6-9.9-2.8-14.5c-2.4-4.9-4.3-10-8.5-13.8
	C92.5,104.4,95.3,103.4,101,107.1z"/>
<path fill="#680505" d="M101,107.1c-0.8,0.3-1.5,0.7-2.3,0c-4-3.1-5.4-0.3-6.6,2.9c-4.3-0.1-4.2,4.6-6.8,6.4
	c-0.1-0.3-0.1-0.9-0.3-0.9c-4.3-0.8-5.6-5.3-9-7.3c-1.1-0.7-4-0.4-3.3-2.8c0.6-2,2.8-1.2,4.4-1.4c1.3-0.5,2.8-1.5,4-1.3
	c4.1,0.5,7.4,0.9,4.2-4.9c-0.8-1.4,1.3-2.4,1.8-3.8c2.1-2,4.4-2.7,7-1c0.3,0,0.7,0,1,0c-2.3,5.4-0.1,8.9,5.5,8.6
	c0.8,0.1,1.2,0.7,1.4,1.4C101.6,104.4,101.3,105.8,101,107.1z"/>
<path fill="#100303" d="M103.2,139.1c0.3,0,0.7,0,1,0.1c-0.1,0.8-0.3,1.8,1,1.8c4.9,0,3.3,4.1,2.6,5.7c-1.1,2.4-3.4,0.1-4.9-0.6
	c-3.7-1.8-5.3-0.9-4.5,5c-4.7-6.7-10.4-2.3-15.2-3.9c-1.1-0.4-3.1,1.1-3.1-1.1c0-1.9,1.8-1.9,3.4-2c1.7-0.1,3.8,0.7,4.6-1.8
	c0.1-1.8,1.4-3.8-1.1-5.1c-2.2-3.2-4.7-6.2-5.8-10c1-1.5,2.5-0.9,3.8-1.1c4.1,2,5.1,6.3,7.2,9.7C96.3,142.6,96.2,142.7,103.2,139.1z
	"/>
<path fill="#B70F0F" d="M103.1,9.2c0.7,0.5,1.3,1.2,2,1.3c4.1,0.9,4.8,3.1,2.4,6.4c-0.5,0.8-1.7,1.6-0.8,2.5
	c1.1,1.1,2.5,0.4,3.7-0.1c0.9-0.4,2.7-0.2,1.4-2.1c-1.1-1.5-0.3-2.6,1.2-3c1.8-0.4,2.4,1.2,2.7,2.3c0.4,2.1-0.1,4.2-1.4,6
	c-1.6,2.2-2.9,0.3-4.3-0.1c-2.2-0.8-5.1,0.1-5.3,1.3c-0.8,6-3.5,1.7-4.7,0.8c-1.5-1.2-1.8-1-2.1,0.7c-1.3-0.7-2.6-1.5-3.9-2.2
	c-1.4-0.9-2.3-2.1-1.3-3.7c1-1.5,2.5-1.2,4-0.9c1.1,0.3,2.4,1.9,3.4,0.2c0.8-1.3-0.5-2.5-1.2-3.5c-1-1.4-1.9-2.8,0-4.2
	C100.2,10,101.6,9.4,103.1,9.2z"/>
<path fill="#B70F0F" d="M80.1,57.1c-0.3,0-0.7,0-1,0c-1.3-1.1-2.9-1.7-4.2-2.9c-0.7-2,2.9-2.9,1.3-5.1c3.6-6.9,11.1-8.9,16.8-13.2
	c1.1,3.9,4.2,7.8,0.4,11.9c-0.3,0.3-0.1,0.9-0.1,1.4c0,1.3,2.9,2.4,0.5,3.6c-2.1,1-4.3-0.1-5.9-1.7c-0.9-0.9-1.1-2.2,0.3-2.8
	c1.4-0.6,3.1-0.6,2.7-2.7c-0.3-1.6-1.6-1.7-2.7-1.4c-1.6,0.5-4.1-0.7-4.6,2.5c-0.2,1.5-0.6,2.9-0.6,4.4
	C81.6,52.8,81.6,55.3,80.1,57.1z"/>
<path fill="#180001" d="M99.1,11c-1.2,2.3,0.8,3.2,1.9,4.5c1.5,1.7,1.8,3.7,0.5,5.4c-1.6,2.2-2.8,0-4-0.9c-1.2-0.8-2.4-1.4-3.6-0.4
	c-1.4,1.1-0.1,2.4,0.3,3.5c-1.1-0.2-2.3-0.2-3.4-0.6c-3-1.4-8.3-1.1-8.2-5c0.1-3,5.1-4,8.2-5.4C93.4,11,96.2,10.6,99.1,11z"/>
<path fill="#4A0101" d="M101.1,102.1c-1.7,0.4-3.4,3.1-5.1,1c-1.8-2.2-3.3-4.9-4.1-7.6c-0.4-1.5,2.6-0.9,3.2-2.4
	c0.3-2.2,1.3-3.3,3.6-2.6c0.8,0.2,1.9,0.7,2.3,0.4c3.5-2.5,3.8,0.3,4.8,2.5c0.8,1.8,1.5,3.6,1.3,5.7c-0.7,0.3-1.3,0.6-2,1
	C102.4,97.9,102.4,101.4,101.1,102.1z"/>
<path fill="#680505" d="M55.1,113.9c0-3.7,0.8-7.2-5.5-6.5c-3.3,0.4-2.2-3.9-2.5-6.3c1.3-1,0.9-2.4,1-3.6c0.1-1.1-0.5-2.7,1.1-2.8
	c1.2-0.1,2.7,0.4,3.7,1.1c1.5,1.1-0.1,1.9-0.7,2.8c-2.3,3.2-0.3,3.5,2.3,3.6c4.8,0.3,6.1,2,4.9,6.5c-0.6,2.2-0.3,3.9,2.3,4.5
	C59.9,116.2,57,111.5,55.1,113.9z"/>
<path fill="#130000" d="M47.9,76c0.8,3.3,3.5,6.3,2.2,10.1l0,0c-2.5-0.1-4.8,0-6.7,2c-1.5,1.6-3.7,0.9-5.6,0.8
	C41.8,85.2,44.9,80.6,47.9,76z"/>
<path fill="#200202" d="M135.2,63.1c-3.2-2.9-5.4-5.8-3.2-10.8c1.7-3.7,2.7-4.3,5.2-1.1C137.3,55.3,136.7,59.3,135.2,63.1z"/>
<path fill="#680505" d="M137.8,44c-1.5-1.7-0.3-3.8-1-6c-1.3,0.3-2.8,3.4-4,0.9c-0.9-2.1,1.1-4.3,1.7-6.5c0.2-0.6,1.1-1.1,1.7-1.6
	C138.3,35.1,138,39.6,137.8,44z"/>
<path fill="#680505" d="M75.1,54.1c2.1-0.1,3.9,0.4,4,3c-0.8,0.4-1,1.2-1,2c-2.8,1.1-5.2-0.7-7.9-1c1.3-1.7,2.5-3.5,3.8-5.2
	C74.7,53.1,74.8,53.6,75.1,54.1z"/>
<path fill="#1C0202" d="M131,75.1c-4.6-2.3-0.4-5.5-0.6-8.3c-0.1-0.9,3.1-1.4,3.7,1.3C133.7,70.7,132.6,73,131,75.1z"/>
<path fill="#680505" d="M28.1,104.1c0.6,0.8,1.2,1.6,1.8,2.3c0.9,1.1,1.7,2.2,0.4,3.4c-1,0.9-2.2,1.6-3.5,0.4
	c-1.2-1.1-2.7-1.2-4.1-1.3C24.4,107.2,25.7,105.1,28.1,104.1z"/>
<path fill="#310000" d="M101.1,102.1c0.2-1.7-0.6-3.9,1.8-4.5c1.7-0.4,2.1,1.1,2.3,2.5c-1.1,1-2.1,2-3.2,3.1
	C101.6,102.7,101.4,102.4,101.1,102.1z"/>
<path fill="#680505" d="M86.9,137.2c1.9-0.1,3.4,0.9,3.8,2.6c0.4,1.7-2.2,1.1-2.6,2.4C86.4,140.8,87.4,138.8,86.9,137.2z"/>
<path fill="#180001" d="M75.1,54.1c-0.4-0.4-0.7-0.8-1.1-1.1c0.2-1.6,1.2-2.7,2.2-3.8C81,52,75.7,52.5,75.1,54.1z"/>
<path fill="#371E1B" d="M121,139.1c-1.8-1.7,0.8-1.9,1-2.9c2.4,0.5,4.5,1.7,6.7,3.3C125.8,141.6,123.7,136.1,121,139.1z"/>
<path fill="#2E0101" d="M63.1,112c-0.6-1.4-2-3.2-0.2-4.2c1.3-0.7,1.6,1.5,2.3,2.5C64.7,111.1,64.4,112.1,63.1,112z"/>
<path fill="#B70F0F" d="M99,59c-0.2,1.5-0.9,2.2-1.7,1.5c-2.2-1.8-4.7-1.2-7.1-1.5c-2.1-0.2-2.6-1.5-1.3-3c1.2-1.4,3.1-1.3,4.6-0.5
	C95.5,56.5,97.3,57.9,99,59z"/>
<path fill="#680505" d="M80.1,57.1c0.6-2.2-1.8-5.9,3-6C84.7,54.4,85.5,57.3,80.1,57.1z"/>
<path fill="#680505" d="M67,93.8c2.9,0.3,4.7,1.1,3.2,4.4c-0.8,1.7-0.8,3.4-0.3,5.3c0.3,1-0.5,1.9-1.5,2.3c-1.1,0.4-2,0-2.3-1.2
	c-0.3-1.5-1.5-2-2.6-2.8c-1.3-1.1-4.1-2.5-2.7-3.9C62.4,96.2,64,93.6,67,93.8z"/>
<path fill="#130000" d="M50.1,86.1c1.2,1.1,4.7-0.9,4,2.3c-0.4,1.9,0,5.8-4.3,4.8c-1.2-0.3-2.8,0.4-3.4-1.3
	c-0.5-1.7,0.2-2.8,1.7-3.7C48.8,87.6,49.4,86.8,50.1,86.1C50.1,86.1,50.1,86.1,50.1,86.1z"/>
<path fill="#200001" d="M94.1,93.1c-2.3,0.3-4.7,0.7-7,1c-1.3,0-2.6-0.1-3.6-1.2c-0.8-0.9-1.8-1.8-1-3c0.7-1.1,1.8-0.3,2.6,0.1
	c1.8,1,3.8,1,5.7,1C92.3,91.1,93.9,91,94.1,93.1z"/>
</svg>
