<svg width="145" height="9" viewBox="0 0 145 9" xmlns="http://www.w3.org/2000/svg"><title>F0664ACB-227F-44F2-8BCF-019569B1C844</title><path d="M139.77 3.125l-1.855.035c-11.38.286-22.744.93-35.373 1.31-8.837.207-18.937.743-27.773 1.103 20.94-.677 42.95-1.762 63.113-2.115a64.258 64.258 0 0 1-7.291.776c-6.824.25-13.555.508-20.231.776v-.385c-18.965 1.17-36.625 1.142-55.595 2.35.67.025.265.12.12.188l-.133.006.134-.006c-.13.06-.055.099 1.124.054-1.18.045-1.254.006-1.124-.054 18.652-.806 36.08-1.448 54.712-2.122-28.923 1.155-56.814 2.462-86.45 3.445l-5.052.167c-5.018-.131-10.057-.067-15.102.083C4.318 8.212-.592 7.394 9.466 7.28l.049-.388C-.506 6.713-4.07 5.465 6.03 4.772c11.349-.732 26.379-.84 40.219-1.543 10.063-.464 20.118-.955 30.16-1.176 13.817-.28 28.907-1.045 42.744-1.323 5.037-.143 13.834-.87 16.36-.706 1.812.047 1.892.249 1.624.492-8.28.383-16.531.777-24.691 1.115-10.01.359-20.018.687-30.01.915 9.77-.145 19.817-.492 30.01-.915l24.438-.917c-.291.212-.57.432-.066.598 0 0 2.519-.13 3.779-.193 5.064.225 3.836.965 1.334 1.576-.64.13-1.358.278-2.16.43" fill="#ED2678" fill-rule="evenodd"/></svg>